# xmcd
#
# Track frame offsets:
#	150
#	17450
#	31470
#	51144
#	62994
#	78490
#	88301
#	100376
#	118627
#	135977
#	148404
#	163968
#	177681
#	192110
#	206955
#	219918
#	243043
#	255932
#	268860
#	297777
#
# Disc length: 4303 seconds
#
# Revision: 1
# Processed by: cddbd v1.5.2PL0 Copyright (c) Steve Scherf et al.
# Submitted via: audiograbber 1.83.01
#
DISCID=2e10cd14
DTITLE=The Pyromantics - Wanted Live
DYEAR=2012
DGENRE=Country
TTITLE0=I'm From The Country
TTITLE1=Cowboy Cadillac
TTITLE2=Gone Country
TTITLE3=Bad Moon Rising
TTITLE4=Wild One
TTITLE5=Blue Suede Shoes
TTITLE6=Kate
TTITLE7=Trail Of Tears
TTITLE8=If Tomorrow Never Comes
TTITLE9=Louisiana Saturday Night
TTITLE10=Roll In My Sweet Baby's Arms
TTITLE11=Let Your Love Flow
TTITLE12=Promised Land
TTITLE13=Burning Love
TTITLE14=Great Balls Of Fire
TTITLE15=Piano And Drums Solo
TTITLE16=Rock'n'Roll Overdose
TTITLE17=Be My Baby Tonight
TTITLE18=I Wanna Ask You Pretty Baby
TTITLE19=Knockin' On Heaven's Door
EXTD=
EXTT0=
EXTT1=
EXTT2=
EXTT3=
EXTT4=
EXTT5=
EXTT6=
EXTT7=
EXTT8=
EXTT9=
EXTT10=
EXTT11=
EXTT12=
EXTT13=
EXTT14=
EXTT15=
EXTT16=
EXTT17=
EXTT18=
EXTT19=
PLAYORDER=
